<?xml version="1.0" standalone="no"?><!DOCTYPE svg PUBLIC "-//W3C//DTD SVG 1.1//EN" "http://www.w3.org/Graphics/SVG/1.1/DTD/svg11.dtd"><svg t="1693748292515" class="icon" viewBox="0 0 1024 1024" version="1.1" xmlns="http://www.w3.org/2000/svg" p-id="1774" width="48" height="48" xmlns:xlink="http://www.w3.org/1999/xlink"><path d="M148.510339 339.452202c-68.484482 0-148.510339-33.351179-148.510339-127.294576 0-91.567232 133.447147-212.157626 212.157626-212.157626 78.625616 0 127.294576 77.098081 127.294576 148.510339a21.215763 21.215763 0 0 1-42.431525 0c0-51.257283-34.114946-106.078813-84.863051-106.078814-51.893755 0-169.726101 98.610865-169.726101 169.726101 0 78.752911 81.171508 84.863051 106.078814 84.863051a21.215763 21.215763 0 0 1 0 42.431525z" p-id="1775"></path><path d="M318.23644 127.294576a21.215763 21.215763 0 0 1-15.02076-36.194091C343.440766 50.832967 437.426594 42.431525 509.178304 42.431525a21.215763 21.215763 0 0 1 0 42.431526c-87.536237 0-153.262669 13.535657-175.921104 36.236522a21.300626 21.300626 0 0 1-15.02076 6.195003zM509.178304 1023.660548c-503.365185 0-509.178304-371.360709-509.178304-387.187669 0-58.894957 22.318982-112.825426 42.643683-153.899142 3.267227-45.359301 42.813409-169.471512 43.237724-170.786889a21.258194 21.258194 0 0 1 40.437244 12.899184C109.60063 376.919239 84.863051 464.964654 84.863051 487.962541a21.724941 21.724941 0 0 1-2.248871 9.504662c-18.712303 37.382174-40.182654 86.984627-40.182655 139.005676 0 14.087266 5.303941 344.756143 466.746779 344.756144a21.215763 21.215763 0 0 1 0 42.431525z" p-id="1776"></path><path d="M218.989102 650.39042c-3.861269 0-7.637675-0.254589-11.201923-0.806199-16.845316-2.588323-29.702068-11.583806-36.109228-25.416484-17.396925-37.467037 12.856752-92.840177 42.134505-146.388762 8.189284-15.02076 15.954254-29.108026 21.470352-41.116148 29.659636-64.53835 70.903079-97.253056 122.669539-97.253056l2.970207 0.042431c71.242531 0.042432 105.824224 34.751419 105.824224 106.078814 0 43.322587-19.560933 58.810094-44.340944 78.413458a349.466042 349.466042 0 0 0-46.038205 41.964779c-39.079435 42.940704-108.709568 84.481167-157.378527 84.481167zM358.122074 381.841296c-34.284672 0-61.865164 23.761654-84.26901 72.557908-5.85555 12.771889-14.044835 27.792649-22.785729 43.746903-18.415282 33.690631-49.263001 90.12456-40.90399 108.157958 0.127295 0.127295 2.50346 1.95185 10.56545 1.612398 30.126383-1.230514 87.239216-29.914225 124.239506-70.606058a390.115444 390.115444 0 0 1 51.129988-46.674678c22.234119-17.609083 28.216964-22.318982 28.216964-45.104711 0-42.219368-9.844114-63.647288-63.647288-63.647288-0.848631 0-1.697261-0.084863-2.545891-0.042432zM869.846269 339.452202a21.215763 21.215763 0 0 1 0-42.431525c24.907305 0 106.078813-6.11014 106.078813-84.863051 0-71.115236-117.832346-169.726101-169.726101-169.726101-50.748104 0-84.863051 54.821531-84.863051 106.078814a21.215763 21.215763 0 0 1-42.431525 0c0-71.412257 48.66896-148.510339 127.294576-148.510339 78.710479 0 212.157626 120.590395 212.157626 212.157626 0 93.943397-80.025857 127.294576-148.510338 127.294576z" p-id="1777"></path><path d="M700.120167 127.294576a21.300626 21.300626 0 0 1-15.02076-6.195003c-22.658435-22.743298-88.384867-36.236523-175.921103-36.236522a21.215763 21.215763 0 0 1 0-42.431526c71.751709 0 165.737538 8.443874 205.962623 48.626528a21.215763 21.215763 0 0 1-15.02076 36.236523zM509.178304 1023.660548a21.215763 21.215763 0 0 1 0-42.431525c461.442838 0 466.746778-330.668877 466.746778-344.756144 0-51.978618-21.470352-101.623503-40.182655-139.005676a21.894667 21.894667 0 0 1-2.24887-9.504662c0-22.997887-24.737579-111.00087-41.455601-163.276509a21.215763 21.215763 0 0 1 40.437244-12.899184c0.424315 1.315377 39.928065 125.427589 43.237724 170.786889 20.324701 41.073716 42.643683 95.004185 42.643683 153.899142 0 15.784527-5.813119 387.187668-509.178303 387.187669z" p-id="1778"></path><path d="M799.367505 650.39042c-48.626528 0-118.256661-41.540463-157.378527-84.523599-17.948535-19.730659-33.520905-32.035802-46.038205-41.964778-24.780011-19.560933-44.340944-35.04844-44.340944-78.371027 0-71.284962 34.581693-105.99395 105.781792-106.078814l2.970207-0.042431c51.766461 0 92.967472 32.714706 122.66954 97.253056 5.516098 12.008122 13.281067 26.13782 21.470352 41.116148 29.277752 53.548585 59.53143 108.921725 42.134504 146.388762-6.364729 13.832677-19.221481 22.870592-36.109228 25.416484a72.685203 72.685203 0 0 1-11.159491 0.806199zM660.234534 381.841296c-0.891062 0-1.739693-0.042432-2.545892 0.042432-53.803174 0-63.647288 21.42792-63.647288 63.647288 0 22.828161 5.982845 27.53806 28.216964 45.104711 13.747814 10.86247 30.847719 24.355696 51.129988 46.674678 37.00029 40.691833 94.113123 69.375544 124.239507 70.606058 8.189284 0.339452 10.480587-1.527535 10.523018-1.527535 8.401442-18.118261-22.446277-74.55219-40.861559-108.242821-8.740894-15.954254-16.930179-30.975013-22.785729-43.746903-22.403845-48.796254-50.026768-72.557908-84.269009-72.557908zM509.178304 806.198981c-77.734554 0-116.729126-65.64157-126.488377-100.350558a21.215763 21.215763 0 0 1 20.409563-26.944018h212.157627a21.1309 21.1309 0 0 1 20.409563 26.944018c-9.759251 34.708988-48.753823 100.350557-126.488376 100.350558z m-72.982224-84.863051c12.390005 19.518502 35.006008 42.431525 72.982224 42.431525 37.806489 0 60.422492-22.955455 72.854929-42.431525H436.19608z" p-id="1779"></path></svg>